<?xml version="1.0" encoding="utf-8"?>
<!-- Uploaded to: SVG Repo, www.svgrepo.com, Generator: SVG Repo Mixer Tools -->
<svg fill="#000000" width="800px" height="800px" viewBox="-5.5 0 32 32" version="1.1" xmlns="http://www.w3.org/2000/svg">
    <title>kudakurage</title>
    <path d="M19.156 9.25l0.156 0.25c0.531 1.031 1.313 2.469 0.688 4.094-0.219 0.563-0.688 0.969-1.125 1.313-0.188 0.156-0.375 0.313-0.531 0.469 0.406 1.563 1.063 2.813 1.906 3.656 0.063 0.063 0.188 0.156 0.313 0.25 0.375 0.219 0.875 0.563 0.75 1.188 0 0.063-0.063 0.125-0.156 0.125-0.719 0-1.344-0.438-2.063-1.344-0.625-0.906-1.219-2.031-1.688-3.531-0.156 0.063-0.344 0.094-0.531 0.156-0.094 0-0.219 0.031-0.313 0.063 0.125 0.75 0.25 1.438 0.344 2.188 0.188 1.625 0.375 3.156 1.125 4.344 0.094 0.156 0.219 0.281 0.344 0.438 0.313 0.313 0.656 0.719 0.406 1.344-0.031 0.063-0.063 0.094-0.094 0.094-0.063 0.031-0.094 0-0.125 0-1.875-1.031-2.219-3.563-2.531-6.031-0.094-0.75-0.188-1.531-0.313-2.25-0.125 0-0.219 0.031-0.344 0.031-0.344 0.063-0.75 0.125-1.125 0.125 0.094 2.094 0.344 4.125 0.563 5.938 0.031 0.5 0.094 1.031 0.156 1.5 0.031 0.25 0.125 0.656 0.25 1.094v0.063c0 0.031 0.031 0.094 0.031 0.156 0.094 0.219 0.281 0.563 0.125 0.844-0.063 0.094-0.188 0.188-0.313 0.25h-0.156c-0.625 0-0.781-1.188-0.844-1.938l-0.031-0.188c-0.063-0.531-0.156-1.156-0.219-1.719-0.25-1.906-0.5-3.875-0.594-5.906-0.406 0.063-0.875 0.094-1.281 0.125-0.281 0-0.625 0.031-0.938 0.031 0.563 1.406 0.344 3.188 0.156 4.875-0.219 1.875-0.406 3.688 0.313 4.969 0.094 0.156 0.219 0.25 0.375 0.375 0.281 0.219 0.625 0.5 0.375 1.188-0.031 0.094-0.125 0.125-0.188 0.094-2.25-0.75-1.969-3.531-1.719-6.219 0.156-1.719 0.313-3.5-0.156-4.781-0.031-0.188-0.031-0.313 0.031-0.406-0.406 0.031-0.844 0.063-1.313 0.063-0.25 1.125-0.469 2.344-0.656 3.688-0.063 0.375-0.125 0.781-0.188 1.156-0.25 1.75-0.531 3.563-0.5 5.594 0.031 0.156 0.063 0.344 0.094 0.5 0.094 0.406 0.156 0.906-0.313 1.188-0.031 0.031-0.063 0.031-0.094 0.031h-0.031c-0.563-0.063-0.531-0.875-0.531-1.313v-0.156c0-2.313 0.406-4.688 0.75-7.031 0.188-1.25 0.344-2.406 0.469-3.563-0.281-0.031-0.688-0.031-1 0.031-0.156 0-0.313 0.031-0.438 0.031-0.25 2.438-0.875 4.75-1.875 7-0.031 0.125-0.094 0.25-0.125 0.375-0.219 0.563-0.5 1.25-1.125 1.5-0.063 0-0.156 0-0.188-0.094-0.344-0.563 0.063-1.156 0.344-1.594 0.125-0.156 0.219-0.344 0.281-0.469 0.938-1.969 1.5-4.25 1.75-6.75-0.156-0.063-0.469-0.063-0.594-0.063-0.094 0-0.219 0.031-0.313 0.031h-0.406c-0.125 2.125-0.875 4-2.156 5.313-0.406 0.438-0.875 0.875-1.344 0.813-0.063 0-0.125-0.031-0.156-0.063-0.125-0.188-0.156-0.406-0.125-0.563 0.094-0.25 0.375-0.406 0.625-0.531 0.094-0.063 0.219-0.125 0.281-0.188 1.125-1.188 1.844-2.906 1.969-4.781 0-0.031-0.125-0.031-0.219 0h-0.281c-0.031-0.031-0.063-0.031-0.094-0.063-0.188-0.156-0.344-0.281-0.531-0.438-1-0.813-1.938-1.563-2.125-3.188-0.188-1.719 0.406-2.969 0.938-4.156 0.094-0.156 0.156-0.344 0.25-0.5 0.75-1.656 1.688-2.938 2.781-3.719 1.375-0.969 3.156-1.469 5.188-1.469 1.156 0 2.375 0.188 3.563 0.531 2.813 0.813 4.844 2.563 6.406 5.531zM17.969 14.5c1.281-0.75 1.563-2.406 0.656-4.063-1.281-2.406-2.906-4.281-4.375-5.125-0.969-0.531-3.281-1.188-5.031-1.188-0.188 0-0.375 0.031-0.531 0.031-2.719 0.25-4.688 1.344-5.969 3.313-0.344 0.594-1.563 2.656-1.719 4.25-0.125 1.281 0.094 2.188 0.688 2.875 0.813 0.875 2.219 1.281 4.469 1.281 1.156 0 2.375-0.125 3.563-0.219 0.625-0.063 1.25-0.125 1.813-0.156 0.344-0.031 0.719-0.063 1.094-0.063 2.031-0.094 4.094-0.188 5.344-0.938zM14.281 9.219c-0.063 0.094-0.156 0.188-0.25 0.219-0.031 0.031-0.125 0.063-0.156 0.063h-0.125s-0.063-0.031-0.094-0.031c-0.156-0.063-0.313-0.188-0.375-0.344-0.031 0-0.031 0-0.063-0.031-0.031-0.125-0.031-0.25-0.031-0.375 0-0.219 0.063-0.406 0.156-0.531 0.063-0.125 0.156-0.188 0.281-0.219 0.031-0.031 0.063-0.063 0.094-0.063h0.125c0.031 0 0.063 0 0.094 0.031 0.188 0.063 0.344 0.156 0.438 0.313 0 0.031 0 0.031 0.031 0.031 0.031 0.125 0.063 0.25 0.031 0.375 0 0.188-0.031 0.406-0.156 0.563zM6.25 9.969c-0.375 0-0.688-0.219-0.75-0.563-0.031-0.219 0-0.469 0.125-0.625 0.25-0.281 0.781-0.281 1.031 0 0.125 0.125 0.25 0.406 0.188 0.844 0 0 0 0.031-0.031 0.063-0.156 0.188-0.344 0.281-0.563 0.281zM16.5 11.281c0.031 0.031 0.031 0.063 0.031 0.094-0.094 0.438-0.531 0.938-1 0.938-0.156 0-0.313-0.031-0.406-0.125-0.063-0.031-0.094-0.094-0.063-0.156-0.188 0.156-0.375 0.281-0.594 0.375h-0.063c-0.063 0-0.125-0.031-0.156-0.094 0 0 0-0.031-0.031-0.031-0.063-0.031-0.125-0.094-0.094-0.188 0.063-0.5 0.5-0.906 0.969-0.906h0.219c0.031 0.031 0.125 0.063 0.125 0.094 0.031 0.031 0.031 0.094 0 0.125 0 0.063-0.031 0.094-0.063 0.156 0.281-0.281 0.688-0.438 1.031-0.375 0.031 0.031 0.063 0.031 0.094 0.094zM17.469 11.406c0.063 0.031 0.094 0.094 0.094 0.125 0 0.156-0.031 0.313-0.125 0.406-0.125 0.125-0.313 0.219-0.5 0.219s-0.406-0.094-0.5-0.188c-0.031-0.031-0.031-0.094-0.031-0.125 0-0.281 0.313-0.531 0.688-0.531 0.156 0 0.281 0.031 0.375 0.094zM3.25 12.969v-0.063l-0.031-0.031c-0.031 0-0.063-0.031-0.094-0.063-0.031-0.063-0.031-0.094-0.031-0.125 0.094-0.406 0.531-0.813 0.938-0.813 0.063 0 0.125 0 0.156 0.031 0.094 0 0.156 0.094 0.125 0.188-0.063 0.469-0.375 0.813-0.844 0.938h-0.031c-0.063 0-0.156-0.031-0.188-0.063zM5.75 12v0.125c-0.188 0.375-0.438 0.844-0.969 1.031-0.031 0.031-0.031 0.031-0.063 0.031-0.063 0-0.156-0.031-0.188-0.094v-0.063c-0.063 0-0.094-0.031-0.125-0.063 0-0.031-0.031-0.125 0-0.156 0.125-0.469 0.5-0.938 1-0.938 0.063 0 0.156 0 0.219 0.031 0.063 0 0.094 0.031 0.125 0.094zM6.813 12.031c0.063 0 0.094 0 0.125 0.031 0.031 0.063 0.063 0.094 0.031 0.156-0.063 0.594-0.531 0.844-0.875 1-0.031 0.031-0.063 0.031-0.063 0.031-0.063 0-0.125-0.031-0.156-0.063-0.156-0.188-0.188-0.406-0.094-0.594 0.156-0.344 0.656-0.563 1.031-0.563zM12.25 12.469c0.125 0 0.25 0.031 0.375 0.125 0.063 0.031 0.125 0.094 0.094 0.156-0.156 0.969-1.375 1.375-2.438 1.375-1.156 0-2-0.469-2.188-1.25 0-0.031 0-0.125 0.063-0.156 0.125-0.094 0.281-0.156 0.438-0.156 0.219 0 0.469 0.156 0.625 0.313 0.125 0.094 0.25 0.219 0.375 0.25 0.469 0.156 1 0.125 1.531-0.063 0.156-0.063 0.313-0.188 0.438-0.281 0.219-0.156 0.438-0.313 0.688-0.313z"></path>
</svg>